<svg xmlns="http://www.w3.org/2000/svg" viewBox="0 0 11 12" width="11" height="12"><path d="M 7.007 6.57 C 8.038 6.961 9.426 6.89 10.31 6.402 L 11.037 6 L 10.31 5.598 C 9.426 5.109 8.038 5.039 7.007 5.429 L 6.233 5.722 C 6.229 5.706 6.223 5.691 6.217 5.676 L 6.969 5.337 C 7.974 4.884 8.906 3.851 9.184 2.882 L 9.415 2.083 L 8.618 2.314 C 7.646 2.593 6.614 3.524 6.161 4.53 L 5.834 5.256 C 5.818 5.248 5.803 5.241 5.787 5.235 L 6.069 4.492 C 6.459 3.461 6.388 2.072 5.9 1.188 L 5.498 0.462 L 5.097 1.188 C 4.608 2.072 4.538 3.461 4.927 4.492 L 5.209 5.235 C 5.193 5.241 5.178 5.248 5.162 5.256 L 4.836 4.53 C 4.382 3.524 3.35 2.593 2.38 2.314 L 1.582 2.083 L 1.813 2.881 C 2.091 3.852 3.023 4.884 4.028 5.336 L 4.78 5.676 C 4.774 5.691 4.768 5.706 4.764 5.722 L 3.99 5.43 C 2.959 5.039 1.571 5.11 0.686 5.598 L -0.04 6 L 0.686 6.402 C 1.571 6.891 2.959 6.961 3.99 6.57 L 4.8 6.264 L 4.82 6.306 L 4.028 6.663 C 3.023 7.116 2.091 8.149 1.813 9.118 L 1.582 9.917 L 2.379 9.686 C 3.35 9.407 4.382 8.476 4.836 7.47 L 5.203 6.655 L 5.245 6.671 L 4.928 7.508 C 4.538 8.539 4.609 9.928 5.097 10.812 L 5.498 11.538 L 5.9 10.812 C 6.389 9.928 6.459 8.539 6.07 7.508 L 5.752 6.67 L 5.794 6.655 L 6.161 7.47 C 6.614 8.476 7.647 9.407 8.617 9.686 L 9.415 9.917 L 9.184 9.118 C 8.906 8.149 7.974 7.116 6.969 6.663 L 6.177 6.306 C 6.184 6.292 6.191 6.278 6.197 6.264 Z" fill="var(--token-0183e0f6-7c96-4dcf-b5fc-d9a1f40026d7, rgb(29, 29, 29)) /* {&quot;name&quot;:&quot;Dark&quot;} */" /></svg>