<svg xmlns="http://www.w3.org/2000/svg" width="50" height="50" fill="none" viewBox="0 0 50 50"><g clip-path="url(#a)"><path fill="#E3F2FF" d="M49 25C49 11.745 38.255 1 25 1S1 11.745 1 25s10.745 24 24 24 24-10.745 24-24" /><path stroke="#1D1D1D" stroke-width="2" d="M49 25C49 11.745 38.255 1 25 1S1 11.745 1 25s10.745 24 24 24 24-10.745 24-24Z" /><path fill="#1D1D1D" d="M18 24a1 1 0 0 0 0 2zm14.707 1.707a1 1 0 0 0 0-1.414l-6.364-6.364a1 1 0 0 0-1.414 1.414L30.586 25l-5.657 5.657a1 1 0 0 0 1.414 1.414zM18 26h14v-2H18z" /></g><defs><clipPath id="a"><path fill="#fff" d="M0 0h50v50H0z" /></clipPath></defs></svg>